# xmcd CD database file
#
# Track frame offsets:
#	150
#	12936
#	27544
#	41188
#	51727
#	75238
#	85797
#	99314
#	110280
#	124281
#	132600
#	143503
#	157714
#	168441
#	175957
#	186045
#
# Disc length: 2640 seconds
#
# Revision: 0
# Processed by: cddbd v1.5.1PL2 Copyright (c) Steve Scherf et al.
# Submitted via: CDex 1.51
#
DISCID=ce0a4e10
DTITLE=0478-Best Country - Best Country Vol. 1
DYEAR=2004
DGENRE=Country
TTITLE0=Avalanche - Nitty Gritty Dirt Band
TTITLE1=Christmas in Nevada - Willard Grant Conspiracy
TTITLE2=Cocaine Blues - Hank Thompson
TTITLE3=Give me a red hot Mama - Smiley Maxedon
TTITLE4=Haywire - The Jayhawks
TTITLE5=Hog Wild Too - Pee Wee King
TTITLE6=If I where a Carpenter - Johnny Cash
TTITLE7=I'll never get out of this - Hank Williams
TTITLE8=I'm a Truck - Red Simpson
TTITLE9=It happened just that way - Roger Miller
TTITLE10=King of the Road - Roger Miller
TTITLE11=Long Black Veil - Lefty Frizzell
TTITLE12=Petticoat Junction - Flatt and Scruggs
TTITLE13=That Truck - Texas Rubies
TTITLE14=There you go - Johnny Cash
TTITLE15=Understand your Man - Johnny Cash
EXTD=YEAR: 2004
EXTT0=
EXTT1=
EXTT2=
EXTT3=
EXTT4=
EXTT5=
EXTT6=
EXTT7=
EXTT8=
EXTT9=
EXTT10=
EXTT11=
EXTT12=
EXTT13=
EXTT14=
EXTT15=
PLAYORDER=
